HIERARCHY
ROOT Hips
{
	OFFSET 0.00000 0.00000 0.00000
	CHANNELS 6 Xposition Yposition Zposition Zrotation Yrotation Xrotation 
	JOINT LHipJoint
	{
		OFFSET 0 0 0
		CHANNELS 3 Zrotation Yrotation Xrotation
		JOINT LeftHip
		{
			OFFSET 1.58161 -1.81893 0.78828
			CHANNELS 3 Zrotation Yrotation Xrotation
			JOINT LeftKnee
			{
				OFFSET 2.53374 -6.96141 0.00000
				CHANNELS 3 Zrotation Yrotation Xrotation
				JOINT LeftAnkle
				{
					OFFSET 2.63509 -7.23986 0.00000
					CHANNELS 3 Zrotation Yrotation Xrotation
					JOINT LeftToe
					{
						OFFSET 0.14115 -0.38781 2.05350
						CHANNELS 3 Zrotation Yrotation Xrotation
						End Site
						{
							OFFSET 0.00000 -0.00000 1.05543
						}
					}
				}
			}
		}
	}
	JOINT RHipJoint
	{
		OFFSET 0 0 0
		CHANNELS 3 Zrotation Yrotation Xrotation
		JOINT RightHip
		{
			OFFSET -1.11138 -1.81893 0.78828
			CHANNELS 3 Zrotation Yrotation Xrotation
			JOINT RightKnee
			{
				OFFSET -2.58392 -7.09926 0.00000
				CHANNELS 3 Zrotation Yrotation Xrotation
				JOINT RightAnkle
				{
					OFFSET -2.66423 -7.31992 0.00000
					CHANNELS 3 Zrotation Yrotation Xrotation
					JOINT RightToe
					{
						OFFSET -0.18831 -0.51739 2.12114
						CHANNELS 3 Zrotation Yrotation Xrotation
						End Site
						{
							OFFSET -0.00000 -0.00000 1.09845
						}
					}
				}
			}
		}
	}
	JOINT lowerback
	{
		OFFSET 0 0 0
		CHANNELS 3 Zrotation Yrotation Xrotation
		JOINT Chest
		{
			OFFSET -0.01511 1.97958 -0.08829
			CHANNELS 3 Zrotation Yrotation Xrotation
			JOINT Chest2
			{
				OFFSET 0.08344 1.97334 -0.04330
				CHANNELS 3 Zrotation Yrotation Xrotation
				JOINT lowerneck
				{
					OFFSET 0 0 0
					CHANNELS 3 Zrotation Yrotation Xrotation
					JOINT Neck
					{
						OFFSET 0.00559 1.76246 0.31246
						CHANNELS 3 Zrotation Yrotation Xrotation
						JOINT Head
						{
							OFFSET -0.07011 1.80354 -0.30524
							CHANNELS 3 Zrotation Yrotation Xrotation
							End Site
							{
								OFFSET -0.02385 1.83547 -0.13906
							}
						}
					}
				}
				JOINT LeftCollar
				{
					OFFSET 0 0 0
					CHANNELS 3 Zrotation Yrotation Xrotation
					JOINT LeftShoulder
					{
						OFFSET 3.20667 1.30156 -0.60240
CHANNELS 3 Zrotation Xrotation Yrotation
						JOINT LeftElbow
						{
OFFSET 0 -4.956630 0.000000
CHANNELS 3 Zrotation Xrotation Yrotation
							JOINT LeftWrist
							{
OFFSET 0 -3.381770 0.000000
CHANNELS 3 Zrotation Xrotation Yrotation
								JOINT lhand
								{
									OFFSET 0 0 0
CHANNELS 3 Zrotation Xrotation Yrotation
									JOINT LFingers
									{
OFFSET 0 -0.662910 0.000000
CHANNELS 3 Zrotation Xrotation Yrotation
										End Site
										{
OFFSET 0 -0.534450 0.000000
										}
									}
								}
								JOINT LThumb
								{
OFFSET 0 0.000000 0.000000
CHANNELS 3 Zrotation Xrotation Yrotation
									End Site
									{
OFFSET 0 -0.542610 0.542610
									}
								}
							}
						}
					}
				}
				JOINT RightCollar
				{
					OFFSET 0 0 0
					CHANNELS 3 Zrotation Yrotation Xrotation
					JOINT RightShoulder
					{
						OFFSET -3.06877 1.34672 -0.60964
CHANNELS 3 Zrotation Xrotation Yrotation
						JOINT RightElbow
						{
OFFSET 0 -5.083650 0.000000
CHANNELS 3 Zrotation Xrotation Yrotation
							JOINT RightWrist
							{
OFFSET 0 -3.359840 0.000000
CHANNELS 3 Zrotation Xrotation Yrotation
								JOINT rhand
								{
									OFFSET 0 0 0
CHANNELS 3 Zrotation Xrotation Yrotation
									JOINT RFingers
									{
OFFSET 0 -0.820760 0.000000
CHANNELS 3 Zrotation Xrotation Yrotation
										End Site
										{
OFFSET 0 -0.661720 0.000000
										}
									}
								}
								JOINT RThumb
								{
OFFSET 0 0.000000 0.000000
CHANNELS 3 Zrotation Xrotation Yrotation
									End Site
									{
OFFSET 0 -0.671820 0.671820
									}
								}
							}
						}
					}
				}
			}
		}
	}
}
MOTION
Frames: 4
Frame Time: 0.008333333333333333
-6.016987 18.040242 3.669212 -6.799152 32.757270 5.551431 0.000000 0.000000 0.000000 2.858364 15.480572 -3.601141 2.673821 10.147208 29.454914 -0.114640 18.924269 12.283198 2.942895 -10.602091 -30.949242 0.000000 0.000000 0.000000 24.466773 25.164384 -18.617778 -2.310134 -9.484237 27.322142 2.136608 24.928142 7.134832 -2.820780 -10.399008 30.278818 -16.006851 -10.840026 -0.396239 -4.177674 -14.379277 -2.484337 3.723491 -6.933208 0.290388 0.909453 22.396547 -5.606122 -13.923619 32.069935 9.741979 -1.598571 14.757365 6.334342 0.000000 0.000000 0.000000 254.195220 -42.261825 173.538609 21.125418 -31.974406 6.116214 26.821215 0.224017 3.471984 0.000000 0.000000 0.000000 -7.125000 0.000000 0.000000 -0.314813 -63.909285 112.543491 0.000000 0.000000 0.000000 -60.065853 -44.821779 -27.983708 -124.780846 -54.895142 -89.604829 -64.544348 -20.288128 -12.817614 0.000000 0.000000 0.000000 7.125000 0.000000 0.000000 -23.195597 3.865520 -23.643726
-6.016010 18.041632 3.661004 -6.845773 32.754900 5.559261 0.000000 0.000000 0.000000 2.884055 15.515983 -3.718802 2.685130 10.166865 29.518970 -0.074856 18.735661 12.505809 3.004954 -10.702379 -31.283185 0.000000 0.000000 0.000000 24.477969 25.212993 -18.637551 -2.303807 -9.472109 27.283570 2.133024 24.923222 6.980939 -2.736868 -10.254778 29.807247 -15.956975 -10.900702 -0.334993 -4.092229 -14.469299 -2.445260 3.781926 -6.983798 0.325876 0.540428 22.456180 -5.962254 -13.839221 32.186296 9.797689 -1.493788 14.782043 6.347979 0.000000 0.000000 0.000000 253.854643 -42.434221 173.292454 21.095942 -31.940101 6.100616 26.902503 0.335657 3.500260 0.000000 0.000000 0.000000 -7.125000 0.000000 0.000000 -0.439914 -63.943805 179.798052 0.000000 0.000000 0.000000 -60.355068 -45.047964 -28.053970 -124.588110 -54.957714 -89.447059 -64.647024 -20.383242 -12.728542 0.000000 0.000000 0.000000 7.125000 0.000000 0.000000 -23.276183 3.951114 -23.702725
-6.015098 18.044354 3.652728 -6.885029 32.755683 5.557289 0.000000 0.000000 0.000000 2.905574 15.552970 -3.824266 2.697144 10.187755 29.587025 -0.030322 18.516232 12.749649 3.084285 -10.830147 -31.709130 0.000000 0.000000 0.000000 24.489844 25.255026 -18.631865 -2.296219 -9.457530 27.237231 2.129354 24.923485 6.766992 -2.629539 -10.069678 29.202644 -15.919926 -10.952858 -0.259190 -4.014319 -14.550502 -2.402813 3.842469 -7.029616 0.356353 0.187014 22.515293 -6.303028 -13.756677 32.301691 9.853908 -1.392540 14.807418 6.361772 0.000000 0.000000 0.000000 253.534234 -42.598276 173.068000 21.071516 -31.911675 6.087712 26.935354 0.409720 3.524434 0.000000 0.000000 0.000000 -7.125000 0.000000 0.000000 -0.490384 -63.972263 179.774587 0.000000 0.000000 0.000000 -60.635297 -45.248580 -28.107896 -124.384763 -55.023548 -89.280543 -64.734748 -19.934758 -12.388225 0.000000 0.000000 0.000000 7.125000 0.000000 0.000000 -23.427775 4.501073 -23.627167
-6.016037 18.046795 3.644339 -6.945880 32.741096 5.521604 0.000000 0.000000 0.000000 2.966864 15.623838 -3.904713 2.709101 10.208477 29.654575 0.007929 18.283844 12.930888 3.143759 -10.923865 -32.023842 0.000000 0.000000 0.000000 24.539301 25.295656 -18.594991 -2.285827 -9.437621 27.174063 2.118336 24.870459 6.687109 -2.568374 -9.960809 28.850181 -15.906717 -10.932261 -0.180246 -4.006806 -14.538983 -2.389478 3.860436 -7.023043 0.324175 0.181380 22.528691 -6.291759 -13.752608 32.326608 9.893412 -1.387156 14.816245 6.373041 0.000000 0.000000 0.000000 253.515327 -42.637466 173.092040 21.057242 -31.895084 6.080137 26.897416 0.321448 3.505527 0.000000 0.000000 0.000000 -7.125000 0.000000 0.000000 -0.432538 -63.949788 179.801381 0.000000 0.000000 0.000000 -60.724696 -45.213772 -28.128055 -124.311328 -55.047087 -89.220380 -64.611167 -18.427621 -11.620195 0.000000 0.000000 0.000000 7.125000 0.000000 0.000000 -23.609265 5.993122 -23.115314
